<?xml version="1.0" encoding="UTF-8"?>
<svg xmlns="http://www.w3.org/2000/svg" xmlns:xlink="http://www.w3.org/1999/xlink" width="854" height="480" viewBox="0 0 854 480">
<defs>
<g>
<g id="glyph-0-0">
<path d="M 0.625 -6.875 L 5.8125 -6.875 L 5.8125 -5.875 L 3.140625 0 L 1.40625 0 L 3.9375 -5.578125 L 0.625 -5.578125 Z "/>
</g>
<g id="glyph-0-1">
<path d="M 2.71875 -1.296875 L 5.75 -1.296875 L 5.75 0 L 0.75 0 L 0.75 -1.296875 L 3.265625 -3.515625 C 3.484375 -3.722656 3.644531 -3.921875 3.75 -4.109375 C 3.863281 -4.304688 3.921875 -4.507812 3.921875 -4.71875 C 3.921875 -5.039062 3.8125 -5.300781 3.59375 -5.5 C 3.375 -5.695312 3.085938 -5.796875 2.734375 -5.796875 C 2.453125 -5.796875 2.144531 -5.734375 1.8125 -5.609375 C 1.488281 -5.492188 1.140625 -5.320312 0.765625 -5.09375 L 0.765625 -6.59375 C 1.160156 -6.726562 1.550781 -6.828125 1.9375 -6.890625 C 2.332031 -6.960938 2.71875 -7 3.09375 -7 C 3.914062 -7 4.554688 -6.816406 5.015625 -6.453125 C 5.472656 -6.097656 5.703125 -5.59375 5.703125 -4.9375 C 5.703125 -4.5625 5.601562 -4.210938 5.40625 -3.890625 C 5.21875 -3.566406 4.8125 -3.132812 4.1875 -2.59375 Z "/>
</g>
</g>
</defs>
<g fill="rgb(100%, 72.156863%, 0%)" fill-opacity="1">
<use xlink:href="#glyph-0-0" x="30" y="28.766602"/>
<use xlink:href="#glyph-0-1" x="37" y="28.766602"/>
</g>
</svg>
