<?xml version="1.0" encoding="UTF-8"?>
<svg xmlns="http://www.w3.org/2000/svg" xmlns:xlink="http://www.w3.org/1999/xlink" width="854" height="480" viewBox="0 0 854 480">
<defs>
<g>
<g id="glyph-0-0">
<path d="M 0.4375 -3.234375 L 0.875 -3.234375 L 0.875 -1.875 L 2.328125 -3.234375 L 2.890625 -3.234375 L 1.28125 -1.734375 L 3 0 L 2.421875 0 L 0.875 -1.5625 L 0.875 0 L 0.4375 0 Z "/>
</g>
<g id="glyph-0-1">
<path d="M 0.4375 -3.234375 L 2.484375 -3.234375 L 2.484375 -2.859375 L 0.875 -2.859375 L 0.875 -1.90625 L 2.40625 -1.90625 L 2.40625 -1.546875 L 0.875 -1.546875 L 0.875 -0.375 L 2.515625 -0.375 L 2.515625 0 L 0.4375 0 Z "/>
</g>
<g id="glyph-0-2">
<path d="M -0.015625 -3.234375 L 0.46875 -3.234375 L 1.359375 -1.90625 L 2.25 -3.234375 L 2.71875 -3.234375 L 1.578125 -1.546875 L 1.578125 0 L 1.140625 0 L 1.140625 -1.546875 Z "/>
</g>
<g id="glyph-0-3">
<path d="M 0.140625 -3.234375 L 0.59375 -3.234375 L 1.265625 -0.5 L 1.953125 -3.234375 L 2.4375 -3.234375 L 3.125 -0.5 L 3.796875 -3.234375 L 4.25 -3.234375 L 3.4375 0 L 2.875 0 L 2.203125 -2.8125 L 1.515625 0 L 0.953125 0 Z "/>
</g>
<g id="glyph-0-4">
<path d="M 1.75 -2.9375 C 1.425781 -2.9375 1.171875 -2.816406 0.984375 -2.578125 C 0.796875 -2.347656 0.703125 -2.023438 0.703125 -1.609375 C 0.703125 -1.203125 0.796875 -0.878906 0.984375 -0.640625 C 1.171875 -0.410156 1.425781 -0.296875 1.75 -0.296875 C 2.0625 -0.296875 2.3125 -0.410156 2.5 -0.640625 C 2.6875 -0.878906 2.78125 -1.203125 2.78125 -1.609375 C 2.78125 -2.023438 2.6875 -2.347656 2.5 -2.578125 C 2.3125 -2.816406 2.0625 -2.9375 1.75 -2.9375 Z M 1.75 -3.296875 C 2.195312 -3.296875 2.554688 -3.140625 2.828125 -2.828125 C 3.109375 -2.523438 3.25 -2.117188 3.25 -1.609375 C 3.25 -1.097656 3.109375 -0.691406 2.828125 -0.390625 C 2.554688 -0.0859375 2.195312 0.0625 1.75 0.0625 C 1.289062 0.0625 0.925781 -0.0859375 0.65625 -0.390625 C 0.382812 -0.691406 0.25 -1.097656 0.25 -1.609375 C 0.25 -2.117188 0.382812 -2.523438 0.65625 -2.828125 C 0.925781 -3.140625 1.289062 -3.296875 1.75 -3.296875 Z "/>
</g>
<g id="glyph-0-5">
<path d="M 1.96875 -1.515625 C 2.0625 -1.484375 2.148438 -1.414062 2.234375 -1.3125 C 2.328125 -1.207031 2.421875 -1.066406 2.515625 -0.890625 L 2.953125 0 L 2.484375 0 L 2.078125 -0.828125 C 1.960938 -1.046875 1.851562 -1.191406 1.75 -1.265625 C 1.65625 -1.335938 1.519531 -1.375 1.34375 -1.375 L 0.875 -1.375 L 0.875 0 L 0.4375 0 L 0.4375 -3.234375 L 1.421875 -3.234375 C 1.796875 -3.234375 2.070312 -3.15625 2.25 -3 C 2.4375 -2.84375 2.53125 -2.609375 2.53125 -2.296875 C 2.53125 -2.097656 2.476562 -1.929688 2.375 -1.796875 C 2.28125 -1.660156 2.144531 -1.566406 1.96875 -1.515625 Z M 0.875 -2.875 L 0.875 -1.734375 L 1.421875 -1.734375 C 1.628906 -1.734375 1.785156 -1.78125 1.890625 -1.875 C 2.003906 -1.96875 2.0625 -2.109375 2.0625 -2.296875 C 2.0625 -2.492188 2.003906 -2.640625 1.890625 -2.734375 C 1.785156 -2.828125 1.628906 -2.875 1.421875 -2.875 Z "/>
</g>
<g id="glyph-0-6">
<path d="M 0.875 -2.875 L 0.875 -0.359375 L 1.40625 -0.359375 C 1.851562 -0.359375 2.175781 -0.457031 2.375 -0.65625 C 2.582031 -0.863281 2.6875 -1.1875 2.6875 -1.625 C 2.6875 -2.050781 2.582031 -2.363281 2.375 -2.5625 C 2.175781 -2.769531 1.851562 -2.875 1.40625 -2.875 Z M 0.4375 -3.234375 L 1.328125 -3.234375 C 1.960938 -3.234375 2.425781 -3.101562 2.71875 -2.84375 C 3.007812 -2.582031 3.15625 -2.175781 3.15625 -1.625 C 3.15625 -1.0625 3.003906 -0.648438 2.703125 -0.390625 C 2.410156 -0.128906 1.953125 0 1.328125 0 L 0.4375 0 Z "/>
</g>
</g>
</defs>
<g fill="rgb(40%, 40%, 40%)" fill-opacity="1">
<use xlink:href="#glyph-0-0" x="30" y="24.125"/>
<use xlink:href="#glyph-0-1" x="33" y="24.125"/>
<use xlink:href="#glyph-0-2" x="36" y="24.125"/>
<use xlink:href="#glyph-0-3" x="39" y="24.125"/>
<use xlink:href="#glyph-0-4" x="43" y="24.125"/>
<use xlink:href="#glyph-0-5" x="46" y="24.125"/>
<use xlink:href="#glyph-0-6" x="49" y="24.125"/>
</g>
</svg>
